<?xml version="1.0" encoding="utf-8" standalone="no"?>
<!DOCTYPE svg PUBLIC "-//W3C//DTD SVG 1.1//EN"
  "http://www.w3.org/Graphics/SVG/1.1/DTD/svg11.dtd">
<svg xmlns:xlink="http://www.w3.org/1999/xlink" width="288pt" height="288pt" viewBox="0 0 288 288" xmlns="http://www.w3.org/2000/svg" version="1.1">
 <metadata>
  <rdf:RDF xmlns:dc="http://purl.org/dc/elements/1.1/" xmlns:cc="http://creativecommons.org/ns#" xmlns:rdf="http://www.w3.org/1999/02/22-rdf-syntax-ns#">
   <cc:Work>
    <dc:type rdf:resource="http://purl.org/dc/dcmitype/StillImage"/>
    <dc:date>2023-12-05T01:35:33.861803</dc:date>
    <dc:format>image/svg+xml</dc:format>
    <dc:creator>
     <cc:Agent>
      <dc:title>Matplotlib v3.8.1, https://matplotlib.org/</dc:title>
     </cc:Agent>
    </dc:creator>
   </cc:Work>
  </rdf:RDF>
 </metadata>
 <defs>
  <style type="text/css">*{stroke-linejoin: round; stroke-linecap: butt}</style>
 </defs>
 <g id="figure_1">
  <g id="patch_1">
   <path d="M 0 288 
L 288 288 
L 288 0 
L 0 0 
z
" style="fill: #ffffff"/>
  </g>
  <g id="axes_1">
   <g id="patch_2">
    <path d="M 36 256.32 
L 259.2 256.32 
L 259.2 34.56 
L 36 34.56 
z
" style="fill: #ffffff"/>
   </g>
   <g id="matplotlib.axis_1">
    <g id="xtick_1">
     <g id="text_1">
      <!-- 0.2 -->
      <g style="fill: #262626" transform="translate(33.138308 274.178281) scale(0.11 -0.11)">
       <defs>
        <path id="DejaVuSans-30" d="M 2034 4250 
Q 1547 4250 1301 3770 
Q 1056 3291 1056 2328 
Q 1056 1369 1301 889 
Q 1547 409 2034 409 
Q 2525 409 2770 889 
Q 3016 1369 3016 2328 
Q 3016 3291 2770 3770 
Q 2525 4250 2034 4250 
z
M 2034 4750 
Q 2819 4750 3233 4129 
Q 3647 3509 3647 2328 
Q 3647 1150 3233 529 
Q 2819 -91 2034 -91 
Q 1250 -91 836 529 
Q 422 1150 422 2328 
Q 422 3509 836 4129 
Q 1250 4750 2034 4750 
z
" transform="scale(0.015625)"/>
        <path id="DejaVuSans-2e" d="M 684 794 
L 1344 794 
L 1344 0 
L 684 0 
L 684 794 
z
" transform="scale(0.015625)"/>
        <path id="DejaVuSans-32" d="M 1228 531 
L 3431 531 
L 3431 0 
L 469 0 
L 469 531 
Q 828 903 1448 1529 
Q 2069 2156 2228 2338 
Q 2531 2678 2651 2914 
Q 2772 3150 2772 3378 
Q 2772 3750 2511 3984 
Q 2250 4219 1831 4219 
Q 1534 4219 1204 4116 
Q 875 4013 500 3803 
L 500 4441 
Q 881 4594 1212 4672 
Q 1544 4750 1819 4750 
Q 2544 4750 2975 4387 
Q 3406 4025 3406 3419 
Q 3406 3131 3298 2873 
Q 3191 2616 2906 2266 
Q 2828 2175 2409 1742 
Q 1991 1309 1228 531 
z
" transform="scale(0.015625)"/>
       </defs>
       <use xlink:href="#DejaVuSans-30"/>
       <use xlink:href="#DejaVuSans-2e" x="63.623047"/>
       <use xlink:href="#DejaVuSans-32" x="95.410156"/>
      </g>
     </g>
    </g>
    <g id="xtick_2">
     <g id="text_2">
      <!-- 0.4 -->
      <g style="fill: #262626" transform="translate(93.638304 274.178281) scale(0.11 -0.11)">
       <defs>
        <path id="DejaVuSans-34" d="M 2419 4116 
L 825 1625 
L 2419 1625 
L 2419 4116 
z
M 2253 4666 
L 3047 4666 
L 3047 1625 
L 3713 1625 
L 3713 1100 
L 3047 1100 
L 3047 0 
L 2419 0 
L 2419 1100 
L 313 1100 
L 313 1709 
L 2253 4666 
z
" transform="scale(0.015625)"/>
       </defs>
       <use xlink:href="#DejaVuSans-30"/>
       <use xlink:href="#DejaVuSans-2e" x="63.623047"/>
       <use xlink:href="#DejaVuSans-34" x="95.410156"/>
      </g>
     </g>
    </g>
    <g id="xtick_3">
     <g id="text_3">
      <!-- 0.6 -->
      <g style="fill: #262626" transform="translate(154.138301 274.178281) scale(0.11 -0.11)">
       <defs>
        <path id="DejaVuSans-36" d="M 2113 2584 
Q 1688 2584 1439 2293 
Q 1191 2003 1191 1497 
Q 1191 994 1439 701 
Q 1688 409 2113 409 
Q 2538 409 2786 701 
Q 3034 994 3034 1497 
Q 3034 2003 2786 2293 
Q 2538 2584 2113 2584 
z
M 3366 4563 
L 3366 3988 
Q 3128 4100 2886 4159 
Q 2644 4219 2406 4219 
Q 1781 4219 1451 3797 
Q 1122 3375 1075 2522 
Q 1259 2794 1537 2939 
Q 1816 3084 2150 3084 
Q 2853 3084 3261 2657 
Q 3669 2231 3669 1497 
Q 3669 778 3244 343 
Q 2819 -91 2113 -91 
Q 1303 -91 875 529 
Q 447 1150 447 2328 
Q 447 3434 972 4092 
Q 1497 4750 2381 4750 
Q 2619 4750 2861 4703 
Q 3103 4656 3366 4563 
z
" transform="scale(0.015625)"/>
       </defs>
       <use xlink:href="#DejaVuSans-30"/>
       <use xlink:href="#DejaVuSans-2e" x="63.623047"/>
       <use xlink:href="#DejaVuSans-36" x="95.410156"/>
      </g>
     </g>
    </g>
    <g id="xtick_4">
     <g id="text_4">
      <!-- 0.8 -->
      <g style="fill: #262626" transform="translate(214.638297 274.178281) scale(0.11 -0.11)">
       <defs>
        <path id="DejaVuSans-38" d="M 2034 2216 
Q 1584 2216 1326 1975 
Q 1069 1734 1069 1313 
Q 1069 891 1326 650 
Q 1584 409 2034 409 
Q 2484 409 2743 651 
Q 3003 894 3003 1313 
Q 3003 1734 2745 1975 
Q 2488 2216 2034 2216 
z
M 1403 2484 
Q 997 2584 770 2862 
Q 544 3141 544 3541 
Q 544 4100 942 4425 
Q 1341 4750 2034 4750 
Q 2731 4750 3128 4425 
Q 3525 4100 3525 3541 
Q 3525 3141 3298 2862 
Q 3072 2584 2669 2484 
Q 3125 2378 3379 2068 
Q 3634 1759 3634 1313 
Q 3634 634 3220 271 
Q 2806 -91 2034 -91 
Q 1263 -91 848 271 
Q 434 634 434 1313 
Q 434 1759 690 2068 
Q 947 2378 1403 2484 
z
M 1172 3481 
Q 1172 3119 1398 2916 
Q 1625 2713 2034 2713 
Q 2441 2713 2670 2916 
Q 2900 3119 2900 3481 
Q 2900 3844 2670 4047 
Q 2441 4250 2034 4250 
Q 1625 4250 1398 4047 
Q 1172 3844 1172 3481 
z
" transform="scale(0.015625)"/>
       </defs>
       <use xlink:href="#DejaVuSans-30"/>
       <use xlink:href="#DejaVuSans-2e" x="63.623047"/>
       <use xlink:href="#DejaVuSans-38" x="95.410156"/>
      </g>
     </g>
    </g>
    <g id="text_5">
     <!-- $r^2$ -->
     <g style="fill: #262626" transform="translate(141.96 289.584063) scale(0.12 -0.12)">
      <defs>
       <path id="DejaVuSans-Oblique-72" d="M 2853 2969 
Q 2766 3016 2653 3041 
Q 2541 3066 2413 3066 
Q 1953 3066 1609 2717 
Q 1266 2369 1153 1784 
L 800 0 
L 225 0 
L 909 3500 
L 1484 3500 
L 1375 2956 
Q 1603 3259 1920 3421 
Q 2238 3584 2597 3584 
Q 2691 3584 2781 3573 
Q 2872 3563 2963 3538 
L 2853 2969 
z
" transform="scale(0.015625)"/>
      </defs>
      <use xlink:href="#DejaVuSans-Oblique-72" transform="translate(0 0.765625)"/>
      <use xlink:href="#DejaVuSans-32" transform="translate(45.763177 39.046875) scale(0.7)"/>
     </g>
    </g>
   </g>
   <g id="matplotlib.axis_2">
    <g id="ytick_1">
     <g id="text_6">
      <!-- 0.000 -->
      <g style="fill: #262626" transform="translate(-4.990938 260.499141) scale(0.11 -0.11)">
       <use xlink:href="#DejaVuSans-30"/>
       <use xlink:href="#DejaVuSans-2e" x="63.623047"/>
       <use xlink:href="#DejaVuSans-30" x="95.410156"/>
       <use xlink:href="#DejaVuSans-30" x="159.033203"/>
       <use xlink:href="#DejaVuSans-30" x="222.65625"/>
      </g>
     </g>
    </g>
    <g id="ytick_2">
     <g id="text_7">
      <!-- 0.025 -->
      <g style="fill: #262626" transform="translate(-4.990938 233.899644) scale(0.11 -0.11)">
       <defs>
        <path id="DejaVuSans-35" d="M 691 4666 
L 3169 4666 
L 3169 4134 
L 1269 4134 
L 1269 2991 
Q 1406 3038 1543 3061 
Q 1681 3084 1819 3084 
Q 2600 3084 3056 2656 
Q 3513 2228 3513 1497 
Q 3513 744 3044 326 
Q 2575 -91 1722 -91 
Q 1428 -91 1123 -41 
Q 819 9 494 109 
L 494 744 
Q 775 591 1075 516 
Q 1375 441 1709 441 
Q 2250 441 2565 725 
Q 2881 1009 2881 1497 
Q 2881 1984 2565 2268 
Q 2250 2553 1709 2553 
Q 1456 2553 1204 2497 
Q 953 2441 691 2322 
L 691 4666 
z
" transform="scale(0.015625)"/>
       </defs>
       <use xlink:href="#DejaVuSans-30"/>
       <use xlink:href="#DejaVuSans-2e" x="63.623047"/>
       <use xlink:href="#DejaVuSans-30" x="95.410156"/>
       <use xlink:href="#DejaVuSans-32" x="159.033203"/>
       <use xlink:href="#DejaVuSans-35" x="222.65625"/>
      </g>
     </g>
    </g>
    <g id="ytick_3">
     <g id="text_8">
      <!-- 0.050 -->
      <g style="fill: #262626" transform="translate(-4.990938 207.300148) scale(0.11 -0.11)">
       <use xlink:href="#DejaVuSans-30"/>
       <use xlink:href="#DejaVuSans-2e" x="63.623047"/>
       <use xlink:href="#DejaVuSans-30" x="95.410156"/>
       <use xlink:href="#DejaVuSans-35" x="159.033203"/>
       <use xlink:href="#DejaVuSans-30" x="222.65625"/>
      </g>
     </g>
    </g>
    <g id="ytick_4">
     <g id="text_9">
      <!-- 0.075 -->
      <g style="fill: #262626" transform="translate(-4.990938 180.700652) scale(0.11 -0.11)">
       <defs>
        <path id="DejaVuSans-37" d="M 525 4666 
L 3525 4666 
L 3525 4397 
L 1831 0 
L 1172 0 
L 2766 4134 
L 525 4134 
L 525 4666 
z
" transform="scale(0.015625)"/>
       </defs>
       <use xlink:href="#DejaVuSans-30"/>
       <use xlink:href="#DejaVuSans-2e" x="63.623047"/>
       <use xlink:href="#DejaVuSans-30" x="95.410156"/>
       <use xlink:href="#DejaVuSans-37" x="159.033203"/>
       <use xlink:href="#DejaVuSans-35" x="222.65625"/>
      </g>
     </g>
    </g>
    <g id="ytick_5">
     <g id="text_10">
      <!-- 0.100 -->
      <g style="fill: #262626" transform="translate(-4.990938 154.101156) scale(0.11 -0.11)">
       <defs>
        <path id="DejaVuSans-31" d="M 794 531 
L 1825 531 
L 1825 4091 
L 703 3866 
L 703 4441 
L 1819 4666 
L 2450 4666 
L 2450 531 
L 3481 531 
L 3481 0 
L 794 0 
L 794 531 
z
" transform="scale(0.015625)"/>
       </defs>
       <use xlink:href="#DejaVuSans-30"/>
       <use xlink:href="#DejaVuSans-2e" x="63.623047"/>
       <use xlink:href="#DejaVuSans-31" x="95.410156"/>
       <use xlink:href="#DejaVuSans-30" x="159.033203"/>
       <use xlink:href="#DejaVuSans-30" x="222.65625"/>
      </g>
     </g>
    </g>
    <g id="ytick_6">
     <g id="text_11">
      <!-- 0.125 -->
      <g style="fill: #262626" transform="translate(-4.990938 127.50166) scale(0.11 -0.11)">
       <use xlink:href="#DejaVuSans-30"/>
       <use xlink:href="#DejaVuSans-2e" x="63.623047"/>
       <use xlink:href="#DejaVuSans-31" x="95.410156"/>
       <use xlink:href="#DejaVuSans-32" x="159.033203"/>
       <use xlink:href="#DejaVuSans-35" x="222.65625"/>
      </g>
     </g>
    </g>
    <g id="ytick_7">
     <g id="text_12">
      <!-- 0.150 -->
      <g style="fill: #262626" transform="translate(-4.990938 100.902163) scale(0.11 -0.11)">
       <use xlink:href="#DejaVuSans-30"/>
       <use xlink:href="#DejaVuSans-2e" x="63.623047"/>
       <use xlink:href="#DejaVuSans-31" x="95.410156"/>
       <use xlink:href="#DejaVuSans-35" x="159.033203"/>
       <use xlink:href="#DejaVuSans-30" x="222.65625"/>
      </g>
     </g>
    </g>
    <g id="ytick_8">
     <g id="text_13">
      <!-- 0.175 -->
      <g style="fill: #262626" transform="translate(-4.990938 74.302667) scale(0.11 -0.11)">
       <use xlink:href="#DejaVuSans-30"/>
       <use xlink:href="#DejaVuSans-2e" x="63.623047"/>
       <use xlink:href="#DejaVuSans-31" x="95.410156"/>
       <use xlink:href="#DejaVuSans-37" x="159.033203"/>
       <use xlink:href="#DejaVuSans-35" x="222.65625"/>
      </g>
     </g>
    </g>
    <g id="ytick_9">
     <g id="text_14">
      <!-- 0.200 -->
      <g style="fill: #262626" transform="translate(-4.990938 47.703171) scale(0.11 -0.11)">
       <use xlink:href="#DejaVuSans-30"/>
       <use xlink:href="#DejaVuSans-2e" x="63.623047"/>
       <use xlink:href="#DejaVuSans-32" x="95.410156"/>
       <use xlink:href="#DejaVuSans-30" x="159.033203"/>
       <use xlink:href="#DejaVuSans-30" x="222.65625"/>
      </g>
     </g>
    </g>
    <g id="text_15">
     <!-- Probability -->
     <g style="fill: #262626" transform="translate(-11.486563 177.154687) rotate(-90) scale(0.12 -0.12)">
      <defs>
       <path id="DejaVuSans-50" d="M 1259 4147 
L 1259 2394 
L 2053 2394 
Q 2494 2394 2734 2622 
Q 2975 2850 2975 3272 
Q 2975 3691 2734 3919 
Q 2494 4147 2053 4147 
L 1259 4147 
z
M 628 4666 
L 2053 4666 
Q 2838 4666 3239 4311 
Q 3641 3956 3641 3272 
Q 3641 2581 3239 2228 
Q 2838 1875 2053 1875 
L 1259 1875 
L 1259 0 
L 628 0 
L 628 4666 
z
" transform="scale(0.015625)"/>
       <path id="DejaVuSans-72" d="M 2631 2963 
Q 2534 3019 2420 3045 
Q 2306 3072 2169 3072 
Q 1681 3072 1420 2755 
Q 1159 2438 1159 1844 
L 1159 0 
L 581 0 
L 581 3500 
L 1159 3500 
L 1159 2956 
Q 1341 3275 1631 3429 
Q 1922 3584 2338 3584 
Q 2397 3584 2469 3576 
Q 2541 3569 2628 3553 
L 2631 2963 
z
" transform="scale(0.015625)"/>
       <path id="DejaVuSans-6f" d="M 1959 3097 
Q 1497 3097 1228 2736 
Q 959 2375 959 1747 
Q 959 1119 1226 758 
Q 1494 397 1959 397 
Q 2419 397 2687 759 
Q 2956 1122 2956 1747 
Q 2956 2369 2687 2733 
Q 2419 3097 1959 3097 
z
M 1959 3584 
Q 2709 3584 3137 3096 
Q 3566 2609 3566 1747 
Q 3566 888 3137 398 
Q 2709 -91 1959 -91 
Q 1206 -91 779 398 
Q 353 888 353 1747 
Q 353 2609 779 3096 
Q 1206 3584 1959 3584 
z
" transform="scale(0.015625)"/>
       <path id="DejaVuSans-62" d="M 3116 1747 
Q 3116 2381 2855 2742 
Q 2594 3103 2138 3103 
Q 1681 3103 1420 2742 
Q 1159 2381 1159 1747 
Q 1159 1113 1420 752 
Q 1681 391 2138 391 
Q 2594 391 2855 752 
Q 3116 1113 3116 1747 
z
M 1159 2969 
Q 1341 3281 1617 3432 
Q 1894 3584 2278 3584 
Q 2916 3584 3314 3078 
Q 3713 2572 3713 1747 
Q 3713 922 3314 415 
Q 2916 -91 2278 -91 
Q 1894 -91 1617 61 
Q 1341 213 1159 525 
L 1159 0 
L 581 0 
L 581 4863 
L 1159 4863 
L 1159 2969 
z
" transform="scale(0.015625)"/>
       <path id="DejaVuSans-61" d="M 2194 1759 
Q 1497 1759 1228 1600 
Q 959 1441 959 1056 
Q 959 750 1161 570 
Q 1363 391 1709 391 
Q 2188 391 2477 730 
Q 2766 1069 2766 1631 
L 2766 1759 
L 2194 1759 
z
M 3341 1997 
L 3341 0 
L 2766 0 
L 2766 531 
Q 2569 213 2275 61 
Q 1981 -91 1556 -91 
Q 1019 -91 701 211 
Q 384 513 384 1019 
Q 384 1609 779 1909 
Q 1175 2209 1959 2209 
L 2766 2209 
L 2766 2266 
Q 2766 2663 2505 2880 
Q 2244 3097 1772 3097 
Q 1472 3097 1187 3025 
Q 903 2953 641 2809 
L 641 3341 
Q 956 3463 1253 3523 
Q 1550 3584 1831 3584 
Q 2591 3584 2966 3190 
Q 3341 2797 3341 1997 
z
" transform="scale(0.015625)"/>
       <path id="DejaVuSans-69" d="M 603 3500 
L 1178 3500 
L 1178 0 
L 603 0 
L 603 3500 
z
M 603 4863 
L 1178 4863 
L 1178 4134 
L 603 4134 
L 603 4863 
z
" transform="scale(0.015625)"/>
       <path id="DejaVuSans-6c" d="M 603 4863 
L 1178 4863 
L 1178 0 
L 603 0 
L 603 4863 
z
" transform="scale(0.015625)"/>
       <path id="DejaVuSans-74" d="M 1172 4494 
L 1172 3500 
L 2356 3500 
L 2356 3053 
L 1172 3053 
L 1172 1153 
Q 1172 725 1289 603 
Q 1406 481 1766 481 
L 2356 481 
L 2356 0 
L 1766 0 
Q 1100 0 847 248 
Q 594 497 594 1153 
L 594 3053 
L 172 3053 
L 172 3500 
L 594 3500 
L 594 4494 
L 1172 4494 
z
" transform="scale(0.015625)"/>
       <path id="DejaVuSans-79" d="M 2059 -325 
Q 1816 -950 1584 -1140 
Q 1353 -1331 966 -1331 
L 506 -1331 
L 506 -850 
L 844 -850 
Q 1081 -850 1212 -737 
Q 1344 -625 1503 -206 
L 1606 56 
L 191 3500 
L 800 3500 
L 1894 763 
L 2988 3500 
L 3597 3500 
L 2059 -325 
z
" transform="scale(0.015625)"/>
      </defs>
      <use xlink:href="#DejaVuSans-50"/>
      <use xlink:href="#DejaVuSans-72" x="58.552734"/>
      <use xlink:href="#DejaVuSans-6f" x="97.416016"/>
      <use xlink:href="#DejaVuSans-62" x="158.597656"/>
      <use xlink:href="#DejaVuSans-61" x="222.074219"/>
      <use xlink:href="#DejaVuSans-62" x="283.353516"/>
      <use xlink:href="#DejaVuSans-69" x="346.830078"/>
      <use xlink:href="#DejaVuSans-6c" x="374.613281"/>
      <use xlink:href="#DejaVuSans-69" x="402.396484"/>
      <use xlink:href="#DejaVuSans-74" x="430.179688"/>
      <use xlink:href="#DejaVuSans-79" x="469.388672"/>
     </g>
    </g>
   </g>
   <g id="patch_3">
    <path d="M 46.145455 256.32 
L 59.139796 256.32 
L 59.139796 255.78801 
L 46.145455 255.78801 
z
" clip-path="url(#pdfbe645a5e)" style="fill: #4c72b0; fill-opacity: 0.3; stroke: #ffffff; stroke-linejoin: miter"/>
   </g>
   <g id="patch_4">
    <path d="M 59.139796 256.32 
L 72.134138 256.32 
L 72.134138 256.32 
L 59.139796 256.32 
z
" clip-path="url(#pdfbe645a5e)" style="fill: #4c72b0; fill-opacity: 0.3; stroke: #ffffff; stroke-linejoin: miter"/>
   </g>
   <g id="patch_5">
    <path d="M 72.134138 256.32 
L 85.12848 256.32 
L 85.12848 253.12806 
L 72.134138 253.12806 
z
" clip-path="url(#pdfbe645a5e)" style="fill: #4c72b0; fill-opacity: 0.3; stroke: #ffffff; stroke-linejoin: miter"/>
   </g>
   <g id="patch_6">
    <path d="M 85.12848 256.32 
L 98.122822 256.32 
L 98.122822 246.212191 
L 85.12848 246.212191 
z
" clip-path="url(#pdfbe645a5e)" style="fill: #4c72b0; fill-opacity: 0.3; stroke: #ffffff; stroke-linejoin: miter"/>
   </g>
   <g id="patch_7">
    <path d="M 98.122822 256.32 
L 111.117164 256.32 
L 111.117164 234.508413 
L 98.122822 234.508413 
z
" clip-path="url(#pdfbe645a5e)" style="fill: #4c72b0; fill-opacity: 0.3; stroke: #ffffff; stroke-linejoin: miter"/>
   </g>
   <g id="patch_8">
    <path d="M 111.117164 256.32 
L 124.111506 256.32 
L 124.111506 213.760806 
L 111.117164 213.760806 
z
" clip-path="url(#pdfbe645a5e)" style="fill: #4c72b0; fill-opacity: 0.3; stroke: #ffffff; stroke-linejoin: miter"/>
   </g>
   <g id="patch_9">
    <path d="M 124.111506 256.32 
L 137.105848 256.32 
L 137.105848 196.737128 
L 124.111506 196.737128 
z
" clip-path="url(#pdfbe645a5e)" style="fill: #4c72b0; fill-opacity: 0.3; stroke: #ffffff; stroke-linejoin: miter"/>
   </g>
   <g id="patch_10">
    <path d="M 137.105848 256.32 
L 150.100189 256.32 
L 150.100189 172.797582 
L 137.105848 172.797582 
z
" clip-path="url(#pdfbe645a5e)" style="fill: #4c72b0; fill-opacity: 0.3; stroke: #ffffff; stroke-linejoin: miter"/>
   </g>
   <g id="patch_11">
    <path d="M 150.100189 256.32 
L 163.094531 256.32 
L 163.094531 169.073652 
L 150.100189 169.073652 
z
" clip-path="url(#pdfbe645a5e)" style="fill: #4c72b0; fill-opacity: 0.3; stroke: #ffffff; stroke-linejoin: miter"/>
   </g>
   <g id="patch_12">
    <path d="M 163.094531 256.32 
L 176.088873 256.32 
L 176.088873 127.046448 
L 163.094531 127.046448 
z
" clip-path="url(#pdfbe645a5e)" style="fill: #4c72b0; fill-opacity: 0.3; stroke: #ffffff; stroke-linejoin: miter"/>
   </g>
   <g id="patch_13">
    <path d="M 176.088873 256.32 
L 189.083215 256.32 
L 189.083215 65.867607 
L 176.088873 65.867607 
z
" clip-path="url(#pdfbe645a5e)" style="fill: #4c72b0; fill-opacity: 0.3; stroke: #ffffff; stroke-linejoin: miter"/>
   </g>
   <g id="patch_14">
    <path d="M 189.083215 256.32 
L 202.077557 256.32 
L 202.077557 45.12 
L 189.083215 45.12 
z
" clip-path="url(#pdfbe645a5e)" style="fill: #4c72b0; fill-opacity: 0.3; stroke: #ffffff; stroke-linejoin: miter"/>
   </g>
   <g id="patch_15">
    <path d="M 202.077557 256.32 
L 215.071899 256.32 
L 215.071899 101.510932 
L 202.077557 101.510932 
z
" clip-path="url(#pdfbe645a5e)" style="fill: #4c72b0; fill-opacity: 0.3; stroke: #ffffff; stroke-linejoin: miter"/>
   </g>
   <g id="patch_16">
    <path d="M 215.071899 256.32 
L 228.066241 256.32 
L 228.066241 196.205139 
L 215.071899 196.205139 
z
" clip-path="url(#pdfbe645a5e)" style="fill: #4c72b0; fill-opacity: 0.3; stroke: #ffffff; stroke-linejoin: miter"/>
   </g>
   <g id="patch_17">
    <path d="M 228.066241 256.32 
L 241.060582 256.32 
L 241.060582 246.744181 
L 228.066241 246.744181 
z
" clip-path="url(#pdfbe645a5e)" style="fill: #4c72b0; fill-opacity: 0.3; stroke: #ffffff; stroke-linejoin: miter"/>
   </g>
   <g id="patch_18">
    <path d="M 108.995671 256.32 
L 118.332929 256.32 
L 118.332929 252.596071 
L 108.995671 252.596071 
z
" clip-path="url(#pdfbe645a5e)" style="fill: #dd8452; fill-opacity: 0.3; stroke: #ffffff; stroke-width: 0.933726; stroke-linejoin: miter"/>
   </g>
   <g id="patch_19">
    <path d="M 118.332929 256.32 
L 127.670187 256.32 
L 127.670187 245.680202 
L 118.332929 245.680202 
z
" clip-path="url(#pdfbe645a5e)" style="fill: #dd8452; fill-opacity: 0.3; stroke: #ffffff; stroke-width: 0.933726; stroke-linejoin: miter"/>
   </g>
   <g id="patch_20">
    <path d="M 127.670187 256.32 
L 137.007446 256.32 
L 137.007446 233.444433 
L 127.670187 233.444433 
z
" clip-path="url(#pdfbe645a5e)" style="fill: #dd8452; fill-opacity: 0.3; stroke: #ffffff; stroke-width: 0.933726; stroke-linejoin: miter"/>
   </g>
   <g id="patch_21">
    <path d="M 137.007446 256.32 
L 146.344704 256.32 
L 146.344704 203.121008 
L 137.007446 203.121008 
z
" clip-path="url(#pdfbe645a5e)" style="fill: #dd8452; fill-opacity: 0.3; stroke: #ffffff; stroke-width: 0.933726; stroke-linejoin: miter"/>
   </g>
   <g id="patch_22">
    <path d="M 146.344704 256.32 
L 155.681962 256.32 
L 155.681962 201.525038 
L 146.344704 201.525038 
z
" clip-path="url(#pdfbe645a5e)" style="fill: #dd8452; fill-opacity: 0.3; stroke: #ffffff; stroke-width: 0.933726; stroke-linejoin: miter"/>
   </g>
   <g id="patch_23">
    <path d="M 155.681962 256.32 
L 165.019221 256.32 
L 165.019221 204.184987 
L 155.681962 204.184987 
z
" clip-path="url(#pdfbe645a5e)" style="fill: #dd8452; fill-opacity: 0.3; stroke: #ffffff; stroke-width: 0.933726; stroke-linejoin: miter"/>
   </g>
   <g id="patch_24">
    <path d="M 165.019221 256.32 
L 174.356479 256.32 
L 174.356479 209.504887 
L 165.019221 209.504887 
z
" clip-path="url(#pdfbe645a5e)" style="fill: #dd8452; fill-opacity: 0.3; stroke: #ffffff; stroke-width: 0.933726; stroke-linejoin: miter"/>
   </g>
   <g id="patch_25">
    <path d="M 174.356479 256.32 
L 183.693737 256.32 
L 183.693737 204.184987 
L 174.356479 204.184987 
z
" clip-path="url(#pdfbe645a5e)" style="fill: #dd8452; fill-opacity: 0.3; stroke: #ffffff; stroke-width: 0.933726; stroke-linejoin: miter"/>
   </g>
   <g id="patch_26">
    <path d="M 183.693737 256.32 
L 193.030996 256.32 
L 193.030996 168.009673 
L 183.693737 168.009673 
z
" clip-path="url(#pdfbe645a5e)" style="fill: #dd8452; fill-opacity: 0.3; stroke: #ffffff; stroke-width: 0.933726; stroke-linejoin: miter"/>
   </g>
   <g id="patch_27">
    <path d="M 193.030996 256.32 
L 202.368254 256.32 
L 202.368254 111.618741 
L 193.030996 111.618741 
z
" clip-path="url(#pdfbe645a5e)" style="fill: #dd8452; fill-opacity: 0.3; stroke: #ffffff; stroke-width: 0.933726; stroke-linejoin: miter"/>
   </g>
   <g id="patch_28">
    <path d="M 202.368254 256.32 
L 211.705512 256.32 
L 211.705512 70.123526 
L 202.368254 70.123526 
z
" clip-path="url(#pdfbe645a5e)" style="fill: #dd8452; fill-opacity: 0.3; stroke: #ffffff; stroke-width: 0.933726; stroke-linejoin: miter"/>
   </g>
   <g id="patch_29">
    <path d="M 211.705512 256.32 
L 221.04277 256.32 
L 221.04277 92.467103 
L 211.705512 92.467103 
z
" clip-path="url(#pdfbe645a5e)" style="fill: #dd8452; fill-opacity: 0.3; stroke: #ffffff; stroke-width: 0.933726; stroke-linejoin: miter"/>
   </g>
   <g id="patch_30">
    <path d="M 221.04277 256.32 
L 230.380029 256.32 
L 230.380029 134.494307 
L 221.04277 134.494307 
z
" clip-path="url(#pdfbe645a5e)" style="fill: #dd8452; fill-opacity: 0.3; stroke: #ffffff; stroke-width: 0.933726; stroke-linejoin: miter"/>
   </g>
   <g id="patch_31">
    <path d="M 230.380029 256.32 
L 239.717287 256.32 
L 239.717287 203.652997 
L 230.380029 203.652997 
z
" clip-path="url(#pdfbe645a5e)" style="fill: #dd8452; fill-opacity: 0.3; stroke: #ffffff; stroke-width: 0.933726; stroke-linejoin: miter"/>
   </g>
   <g id="patch_32">
    <path d="M 239.717287 256.32 
L 249.054545 256.32 
L 249.054545 246.212191 
L 239.717287 246.212191 
z
" clip-path="url(#pdfbe645a5e)" style="fill: #dd8452; fill-opacity: 0.3; stroke: #ffffff; stroke-width: 0.933726; stroke-linejoin: miter"/>
   </g>
   <g id="patch_33">
    <path d="M 36 256.32 
L 36 34.56 
" style="fill: none; stroke: #262626; stroke-width: 1.25; stroke-linejoin: miter; stroke-linecap: square"/>
   </g>
   <g id="patch_34">
    <path d="M 259.2 256.32 
L 259.2 34.56 
" style="fill: none; stroke: #262626; stroke-width: 1.25; stroke-linejoin: miter; stroke-linecap: square"/>
   </g>
   <g id="patch_35">
    <path d="M 36 256.32 
L 259.2 256.32 
" style="fill: none; stroke: #262626; stroke-width: 1.25; stroke-linejoin: miter; stroke-linecap: square"/>
   </g>
   <g id="patch_36">
    <path d="M 36 34.56 
L 259.2 34.56 
" style="fill: none; stroke: #262626; stroke-width: 1.25; stroke-linejoin: miter; stroke-linecap: square"/>
   </g>
  </g>
 </g>
 <defs>
  <clipPath id="pdfbe645a5e">
   <rect x="36" y="34.56" width="223.2" height="221.76"/>
  </clipPath>
 </defs>
</svg>
